<?xml version="1.0" encoding="utf-8"?>
<!-- Generator: Adobe Illustrator 21.0.0, SVG Export Plug-In . SVG Version: 6.00 Build 0)  -->
<svg version="1.1" id="图层_1" xmlns="http://www.w3.org/2000/svg" xmlns:xlink="http://www.w3.org/1999/xlink" x="0px" y="0px"
	 viewBox="0 0 300 300" style="enable-background:new 0 0 300 300;" xml:space="preserve">
<style type="text/css">
	.st0{fill:#04D5E5;}
	.st1{fill:#865AF7;}
	.st2{fill:#FFC208;}
</style>
<g>
	<path class="st0" d="M115.3,83.7l-19.7,34.1c-5.6,9.7,1.4,21.9,12.7,21.9h39.3c11.2,0,18.3-12.2,12.7-21.9l-19.7-34.1
		C134.9,73.9,120.9,73.9,115.3,83.7z"/>
	<path class="st1" d="M137.3,204.8l-41.8-72.3c-5.6-9.7,1.4-21.9,12.7-21.9h83.5c11.2,0,18.3,12.2,12.7,21.9l-41.8,72.3
		C157,214.6,143,214.6,137.3,204.8z"/>
	<path class="st2" d="M157.1,170.6l-41.8-72.3c-5.6-9.7,1.4-21.9,12.7-21.9h83.5c11.2,0,18.3,12.2,12.7,21.9l-41.8,72.3
		C176.8,180.3,162.7,180.3,157.1,170.6z"/>
	<path class="st1" d="M137.3,204.8l-41.8-72.3c-5.6-9.7,1.4-21.9,12.7-21.9h83.5c11.2,0,18.3,12.2,12.7,21.9l-41.8,72.3
		C157,214.6,143,214.6,137.3,204.8z"/>
	<path class="st2" d="M157.1,170.6l-41.8-72.3c-5.6-9.7,1.4-21.9,12.7-21.9h83.5c11.2,0,18.3,12.2,12.7,21.9l-41.8,72.3
		C176.8,180.3,162.7,180.3,157.1,170.6z"/>
</g>
</svg>
